<svg width="20" height="20" viewBox="0 0 20 20" fill="none" xmlns="http://www.w3.org/2000/svg">
<path fill-rule="evenodd" clip-rule="evenodd" d="M5.67011 -0.000106812H14.3401C17.7301 -0.000106812 20.0001 2.37989 20.0001 5.91989V14.0909C20.0001 17.6199 17.7301 19.9999 14.3401 19.9999H5.67011C2.28011 19.9999 0.000106812 17.6199 0.000106812 14.0909V5.91989C0.000106812 2.37989 2.28011 -0.000106812 5.67011 -0.000106812ZM9.43011 12.9899L14.1801 8.23989C14.5201 7.89989 14.5201 7.34989 14.1801 6.99989C13.8401 6.65989 13.2801 6.65989 12.9401 6.99989L8.81011 11.1299L7.06011 9.37989C6.72011 9.03989 6.16011 9.03989 5.82011 9.37989C5.48011 9.71989 5.48011 10.2699 5.82011 10.6199L8.20011 12.9899C8.37011 13.1599 8.59011 13.2399 8.81011 13.2399C9.04011 13.2399 9.26011 13.1599 9.43011 12.9899Z" fill="#130F26"/>
</svg>
