<svg width="14" height="14" viewBox="0 0 14 14" fill="none" xmlns="http://www.w3.org/2000/svg">
<path d="M12.2011 7.686C12.2291 7.462 12.2501 7.238 12.2501 7C12.2501 6.762 12.2291 6.538 12.2011 6.314L13.6781 5.159C13.8111 5.054 13.8461 4.865 13.7621 4.711L12.3621 2.289C12.2781 2.135 12.0891 2.079 11.9351 2.135L10.1921 2.835C9.82811 2.555 9.43611 2.324 9.00911 2.149L8.74311 0.294C8.72211 0.126 8.57511 0 8.40011 0H5.60011C5.42511 0 5.27811 0.126 5.25711 0.294L4.99111 2.149C4.56411 2.324 4.17211 2.562 3.80811 2.835L2.06511 2.135C1.90411 2.072 1.72211 2.135 1.63811 2.289L0.238107 4.711C0.147107 4.865 0.189107 5.054 0.322107 5.159L1.79911 6.314C1.77111 6.538 1.75011 6.769 1.75011 7C1.75011 7.231 1.77111 7.462 1.79911 7.686L0.322107 8.841C0.189107 8.946 0.154107 9.135 0.238107 9.289L1.63811 11.711C1.72211 11.865 1.91111 11.921 2.06511 11.865L3.80811 11.165C4.17211 11.445 4.56411 11.676 4.99111 11.851L5.25711 13.706C5.27811 13.874 5.42511 14 5.60011 14H8.40011C8.57511 14 8.72211 13.874 8.74311 13.706L9.00911 11.851C9.43611 11.676 9.82811 11.438 10.1921 11.165L11.9351 11.865C12.0961 11.928 12.2781 11.865 12.3621 11.711L13.7621 9.289C13.8461 9.135 13.8111 8.946 13.6781 8.841L12.2011 7.686ZM7.00011 9.45C5.64911 9.45 4.55011 8.351 4.55011 7C4.55011 5.649 5.64911 4.55 7.00011 4.55C8.35111 4.55 9.45011 5.649 9.45011 7C9.45011 8.351 8.35111 9.45 7.00011 9.45Z" fill="#5EBD96"/>
</svg>
